<svg xmlns="http://www.w3.org/2000/svg" viewBox="0 0 900 480" font-family="Inter, system-ui, sans-serif"><rect width="900" height="480" fill="#0A0E17"/>
<text x="40" y="40" fill="#FFB020" font-size="22" font-weight="700">Payload Library Breakdown</text>
<text x="40" y="65" fill="#6B7280" font-size="13">88 payloads across 15 attack types</text>
<text x="40" y="112" fill="#E5E7EB" font-size="12">sqli</text>
<rect x="200" y="95" width="520.0" height="24" rx="3" fill="#00E676" opacity="0.8"/>
<text x="730.0" y="112" fill="#E5E7EB" font-size="13" font-weight="600">10</text>
<text x="40" y="142" fill="#E5E7EB" font-size="12">xss</text>
<rect x="200" y="125" width="520.0" height="24" rx="3" fill="#FFAB40" opacity="0.8"/>
<text x="730.0" y="142" fill="#E5E7EB" font-size="13" font-weight="600">10</text>
<text x="40" y="172" fill="#E5E7EB" font-size="12">ssrf</text>
<rect x="200" y="155" width="520.0" height="24" rx="3" fill="#FF5252" opacity="0.8"/>
<text x="730.0" y="172" fill="#E5E7EB" font-size="13" font-weight="600">10</text>
<text x="40" y="202" fill="#E5E7EB" font-size="12">lfi</text>
<rect x="200" y="185" width="468.0" height="24" rx="3" fill="#40C4FF" opacity="0.8"/>
<text x="678.0" y="202" fill="#E5E7EB" font-size="13" font-weight="600">9</text>
<text x="40" y="232" fill="#E5E7EB" font-size="12">ssti</text>
<rect x="200" y="215" width="416.0" height="24" rx="3" fill="#FF6B9D" opacity="0.8"/>
<text x="626.0" y="232" fill="#E5E7EB" font-size="13" font-weight="600">8</text>
<text x="40" y="262" fill="#E5E7EB" font-size="12">cmdi</text>
<rect x="200" y="245" width="364.0" height="24" rx="3" fill="#A78BFA" opacity="0.8"/>
<text x="574.0" y="262" fill="#E5E7EB" font-size="13" font-weight="600">7</text>
<text x="40" y="292" fill="#E5E7EB" font-size="12">open_redirect</text>
<rect x="200" y="275" width="312.0" height="24" rx="3" fill="#34D399" opacity="0.8"/>
<text x="522.0" y="292" fill="#E5E7EB" font-size="13" font-weight="600">6</text>
<text x="40" y="322" fill="#E5E7EB" font-size="12">nosql</text>
<rect x="200" y="305" width="208.0" height="24" rx="3" fill="#FBBF24" opacity="0.8"/>
<text x="418.0" y="322" fill="#E5E7EB" font-size="13" font-weight="600">4</text>
<text x="40" y="352" fill="#E5E7EB" font-size="12">jwt</text>
<rect x="200" y="335" width="208.0" height="24" rx="3" fill="#F87171" opacity="0.8"/>
<text x="418.0" y="352" fill="#E5E7EB" font-size="13" font-weight="600">4</text>
<text x="40" y="382" fill="#E5E7EB" font-size="12">graphql</text>
<rect x="200" y="365" width="208.0" height="24" rx="3" fill="#60A5FA" opacity="0.8"/>
<text x="418.0" y="382" fill="#E5E7EB" font-size="13" font-weight="600">4</text>
<text x="40" y="412" fill="#E5E7EB" font-size="12">llm_injection</text>
<rect x="200" y="395" width="208.0" height="24" rx="3" fill="#C084FC" opacity="0.8"/>
<text x="418.0" y="412" fill="#E5E7EB" font-size="13" font-weight="600">4</text>
<text x="40" y="442" fill="#E5E7EB" font-size="12">xxe</text>
<rect x="200" y="425" width="156.0" height="24" rx="3" fill="#4ADE80" opacity="0.8"/>
<text x="366.0" y="442" fill="#E5E7EB" font-size="13" font-weight="600">3</text>
<text x="40" y="472" fill="#E5E7EB" font-size="12">prototype_pollution</text>
<rect x="200" y="455" width="156.0" height="24" rx="3" fill="#FB923C" opacity="0.8"/>
<text x="366.0" y="472" fill="#E5E7EB" font-size="13" font-weight="600">3</text>
<text x="40" y="502" fill="#E5E7EB" font-size="12">host_header</text>
<rect x="200" y="485" width="156.0" height="24" rx="3" fill="#00D4FF" opacity="0.8"/>
<text x="366.0" y="502" fill="#E5E7EB" font-size="13" font-weight="600">3</text>
<text x="40" y="532" fill="#E5E7EB" font-size="12">crlf</text>
<rect x="200" y="515" width="156.0" height="24" rx="3" fill="#FFB020" opacity="0.8"/>
<text x="366.0" y="532" fill="#E5E7EB" font-size="13" font-weight="600">3</text>
</svg>